<svg width="181" height="177" viewBox="0 0 181 177" fill="none" xmlns="http://www.w3.org/2000/svg">
<path d="M90.4999 0.083252C78.6262 0.083252 66.8688 2.42195 55.899 6.96581C44.9291 11.5097 34.9616 18.1697 26.5657 26.5657C9.60927 43.5221 0.083252 66.5199 0.083252 90.4999C0.083252 130.464 26.0328 164.37 61.9282 176.396C66.4491 177.119 67.8957 174.316 67.8957 171.875C67.8957 169.795 67.8957 164.099 67.8957 156.594C42.8503 162.02 37.5157 144.479 37.5157 144.479C33.3566 133.99 27.4795 131.187 27.4795 131.187C19.2516 125.582 28.1124 125.762 28.1124 125.762C37.1541 126.395 41.9462 135.075 41.9462 135.075C49.8124 148.819 63.1037 144.75 68.2574 142.58C69.0712 136.703 71.422 132.725 73.9537 130.464C53.8812 128.204 32.8141 120.428 32.8141 85.9791C32.8141 75.9428 36.2499 67.8958 42.127 61.4762C41.2228 59.2158 38.0583 49.8124 43.0312 37.6062C43.0312 37.6062 50.6262 35.1649 67.8957 46.8287C75.0387 44.8395 82.8145 43.8449 90.4999 43.8449C98.1853 43.8449 105.961 44.8395 113.104 46.8287C130.374 35.1649 137.969 37.6062 137.969 37.6062C142.942 49.8124 139.777 59.2158 138.873 61.4762C144.75 67.8958 148.186 75.9428 148.186 85.9791C148.186 120.518 127.028 128.113 106.865 130.374C110.12 133.177 113.104 138.692 113.104 147.101C113.104 159.217 113.104 168.982 113.104 171.875C113.104 174.316 114.551 177.21 119.162 176.396C155.057 164.28 180.917 130.464 180.917 90.4999C180.917 78.6262 178.578 66.8688 174.034 55.899C169.49 44.9291 162.83 34.9616 154.434 26.5657C146.038 18.1697 136.071 11.5097 125.101 6.96581C114.131 2.42195 102.374 0.083252 90.4999 0.083252Z" fill="white"/>
</svg>
